<?xml version="1.0" encoding="utf-8"?>
<!-- Generator: Adobe Illustrator 19.2.1, SVG Export Plug-In . SVG Version: 6.00 Build 0)  -->
<svg version="1.1" id="layer" xmlns="http://www.w3.org/2000/svg" xmlns:xlink="http://www.w3.org/1999/xlink" x="0px" y="0px"
	 viewBox="0 0 652 652" style="enable-background:new 0 0 652 652;" xml:space="preserve">
<style type="text/css">
	.st0{fill:#DA161F;}
</style>
<path class="st0" d="M596.5,322.6c0,0-0.8-0.2-0.9,0.6c0,0.4,0.1,0.7,0.5,1c0.1,0.1,0.2,0.1,0.3,0.1c1.5,0.1,3.3-2.5,4.5-4.5
	c0.5-0.9,0.7-1.2,1-1.2c0.1,0,0.5-0.1,1,0.8c0.6,1.1,3.8,4.3,7.8,3.4c0.2-0.4-0.6-0.7-1-1c0,0-1.7-1.3,0.5-1.9
	c2.1-0.5,3.2,0.3,5-1.2c0.1-0.5-1-0.7-1-0.7s-1.3-0.8,2.4-1.9c1.8-0.5,1.8-0.8,1.5-1c-0.3-0.2-1.2-0.6,0.1-1.4
	c1.3-0.9,2.2-2,2.1-2.4c-0.2-0.3-0.8-0.2-1.5,0.2c-0.8,0.4-1.8,0.2-2.4-0.7c-0.5-0.9-1.1-0.7-1.8-0.2c-0.7,0.5-2.1,1.3-2.8,0
	c-0.4-1.5-0.2-1.1,0.9-3.2c1.1-2,1.3-3.7,1.3-4c0-0.3-0.2-0.5-1.2,0c-0.9,0.2-1-4.2-1-4.8c0,0,0-1.2-0.7-0.2
	c-0.6,0.7-2.8,2.8-3.5,3.1c-0.7,0.2-1.7-0.4-1.6-1.3c0-0.9-0.6-0.6-0.8,0c-0.2,0.5-1.9,5.9-2.3,6.2c-0.4,0.3-0.7,1.1-1.4-0.2
	c-0.7-1.3-2-4.5-3.1-2.9c-0.3-0.3-2.3-3-4-3.1c-0.2,0.3,0.2,1.1,0.5,1.3c0.3,0.4,0.3,1.5,0,2.3c-0.3,0.8-0.3,1.8,0.1,2.8
	c0.2,0.5-0.1,1.3-1.4,1.4c-1.3,0.2-1.1,0.5-0.5,1.3c0.5,0.7,2.6,2.4,3.1,3.1c0.5,0.6-0.1,1.4-1,1.5s-1.8-0.2-2.1,0.3
	c-0.1,0.5,0.7,0.3,1,0.8c0,0,1.7,3.1,4,3c2.3-0.2,2.4,0.1,2.1,1.1C600,319.7,598.2,322.4,596.5,322.6 M127,337.5
	c-0.9,3-2.4,4.4-4.8,4.4h-9c0-1.5,0-6,0.1-10.1c0-2.6,0.1-7.2,0.1-7.9h11.4v-3.7h-11.4v-17.9h7c2.4,0,3.5,0.9,4.2,3.2l2.3,7.8
	c1-0.1,1.9-0.1,2.9-0.3v-13.1h-29.6v2.4h4.1v39.6H93.6v-39.6h4.6v-2.4h-18v2.4h4.5v18.1H71.1v-18.1h4.5v-2.4H20.8l-0.5,13.2
	c1.1,0.1,1.9,0.3,3,0.3l2.3-8.4c0.7-2.4,1.4-2.8,4.1-2.8h4.6v39.6h-6.2v2.4h21.4v-2.4h-6.3v-39.6h4.8c2.8,0,3.3,0.6,4,2.8l2.3,8.4
	c1.1-0.1,1.9-0.3,3-0.3v-10.9h4.8v39.6h-5.1v2.4h18.6v-2.4h-4.5v-18.1h13.5v18.1h-4.5v2.4h51.2l0.5-13.7l-2.9-0.5L127,337.5
	 M166.6,328.8h4.6V341c-1.5,0.5-3.2,0.9-4.9,0.9c-6.2,0-10.4-4.6-10.4-20.3c0-10.3,2.6-19.5,10.2-19.5c5.5,0,7.5,4.7,9.5,12.2
	l3.2-0.7v-11.8c-1.3-0.8-5.5-2.5-12.8-2.5c-12.3,0-19.7,12.1-19.7,23.6c0,15,8.6,22.2,19.5,22.2c2.6,0,7.4-1,10.1-2l4.1-0.3v-16.3
	h-13.3L166.6,328.8 M207.2,337.4c-1.1,3.3-2.4,4.5-4.9,4.5h-6.5c0.3-0.4,0.3-4.8,0.3-39.6h4.9v-2.4h-18.5v2.4h4.6v39.6h-4.8v2.4
	h29.2l1-14.2c-1-0.1-1.8-0.1-2.8-0.3L207.2,337.4 M231.3,299.2c-12.8,0-18.4,10.9-18.4,23.4c0,15,7.6,22.4,18.4,22.4
	c12.8,0,18.5-10.9,18.5-23.4C249.7,307.5,242.8,299.2,231.3,299.2z M231.3,342c-4,0-8.9-3.5-8.9-19.9c0-15,3.6-19.8,8.9-19.8
	c3.6,0,9,2.4,9,19.9C240.2,338,235.8,342,231.3,342z M275.4,321.6v-0.4c4.9-1.4,8.6-6.2,8.6-9.8c0-7.1-4.9-11.5-14.3-11.5h-18.4v2.4
	h4.7v39.6h-4.7v2.4H270c9.4,0,14.9-4.8,14.9-11.7C284.9,327.3,280.9,322.8,275.4,321.6L275.4,321.6z M265,302.3h4.6
	c3.3,0,5.9,2.6,5.9,9.8c0,4.3-1.8,8.1-4.9,8.1H265L265,302.3L265,302.3z M270.1,341.9h-4.5c-0.6,0-0.6-0.6-0.6-1.5v-17.6h5.2
	c4.3,0,5.6,4.1,5.6,9.7C275.8,340.2,273.2,341.9,270.1,341.9z M314.1,337.5c-0.9,3-2.4,4.4-4.7,4.4h-9c0-1.5,0-6,0.1-10.1
	c0-2.6,0.1-7.2,0.1-7.9h11.4v-3.7h-11.4v-17.9h7c2.4,0,3.5,0.9,4.2,3.2l2.3,7.8c1-0.1,1.8-0.1,2.9-0.3v-13.1h-29.5v2.4h4.1v39.6
	h-5.7v2.4h32.5l0.5-13.7L316,330L314.1,337.5 M423.5,299.9H393v2.4c4.7,0,5.5,1.2,5.5,3.7V328c-5.7-9.4-11.3-18.7-16.9-28.1h-11.7
	v2.1c1.9,0.6,3.3,2,4.4,3.5v32c0,3.8-2,4.3-4,4.4h-2.2l-12.9-42h-6.1c-1.7,6.7-11.4,36.9-11.4,36.9c-0.9,2.8-2.4,5.2-5.3,5.2h-0.1
	v2.3h14.2v-2.4H346c-3.9-0.3-5.1-0.4-5.1-3.2c0-0.9,0.1-1.8,0.3-3.1l2.3-8h10.8l4.1,14.3h-4.9v2.4h29.7V342
	c-5.5-0.1-5.8-1.6-5.8-4.4v-27.4c6.9,11.4,13.6,22.8,20.5,34.1h3.5v-38.3c0-2.9,1.8-3.6,5-3.7h4.6v39.6h-4.9v2.4h17.9
	c13.1,0,20.6-10.3,20.6-22.7C444.7,308.9,436.1,299.9,423.5,299.9L423.5,299.9z M344.2,325.2l4.7-16.3l4.7,16.3H344.2L344.2,325.2z
	 M421.6,341.9c-1.1,0-1.5-0.7-1.5-2v-37.7c9.4,0,14.5,5.9,14.5,19.8C434.6,336.4,430.6,341.9,421.6,341.9z M557.4,341.9v-39.6h4.1
	v-2.4h-17.9v2.4h4.2v39.6h-7l-12.9-42h-6.1c-1.6,6.7-11.4,36.9-11.4,36.9c-0.8,2.6-2.2,4.8-4.7,5.1h-3.5l-2.4-39.6h5.1v-2.4h-13.9
	l-8.4,23.6c-2.8-7.8-5.7-15.8-8.3-23.6h-14.7v2.4c4.6,0,4.9,0.7,4.9,5.1v0.5c-0.4,7.9-1.3,22.5-1.9,30.7c-0.1,1.8-1.6,3.3-5.6,3.5
	v2.2h15.6V342c-5.6-0.1-6.5-2-6.5-3.4c0-0.8,0.2-6.5,0.4-12.1c0.3-7.7,0.5-12.6,0.8-20.4v0.3c3.8,10.6,7.8,21.4,11.5,32l1.4-0.7
	c3.7-10,7.3-19.7,11.1-29.6l1.7,33.7h-4.3v2.4H519v-2.4h-0.4c-3.9-0.3-5.1-0.4-5.1-3.2c0-0.9,0.1-1.8,0.3-3.1l2.3-8H527l4.2,14.3
	h-4.9v2.4h35.2v-2.4H557.4L557.4,341.9z M516.9,325.2l4.7-16.3l4.7,16.3H516.9z M591.1,329.8l-2.5,7.6c-1.1,3.3-2.4,4.5-4.9,4.5
	h-6.5c0.3-0.4,0.3-4.8,0.3-39.6h4.9v-2.4h-18.5v2.4h4.6v39.6h-4.8v2.4h29.2l1-14.2C592.9,330,592.1,330,591.1,329.8"/>
</svg>
