<?xml version="1.0" encoding="utf-8"?>
<!-- Generator: Adobe Illustrator 19.0.0, SVG Export Plug-In . SVG Version: 6.00 Build 0)  -->
<svg version="1.1" id="Layer_1" xmlns="http://www.w3.org/2000/svg" xmlns:xlink="http://www.w3.org/1999/xlink" x="0px" y="0px"
	 viewBox="0 0 500 500" style="enable-background:new 0 0 500 500;" xml:space="preserve">
<style type="text/css">
	.st0{fill:#4285F4;}
	.st1{fill:#EA4335;}
	.st2{fill:#FBBC05;}
	.st3{fill:#34A853;}
</style>
<g id="XMLID_24_">
	<path id="XMLID_26_" class="st0" d="M156,232.2h-43.2V245h30.6c-1.5,18-16.5,25.6-30.6,25.6c-18.1,0-33.8-14.2-33.8-34.1
		c0-19.4,15-34.3,33.8-34.3c14.5,0,23.1,9.3,23.1,9.3l9-9.3c0,0-11.5-12.8-32.5-12.8c-26.7,0-47.4,22.6-47.4,46.9
		c0,23.9,19.5,47.2,48.1,47.2c25.2,0,43.6-17.3,43.6-42.8C156.7,235.3,156,232.2,156,232.2L156,232.2z"/>
	<path id="XMLID_32_" class="st1" d="M191.3,222.9c-17.7,0-30.4,13.9-30.4,30c0,16.4,12.3,30.5,30.6,30.5
		c16.6,0,30.1-12.7,30.1-30.1C221.7,233.2,205.9,222.9,191.3,222.9z M191.5,234.8c8.7,0,17,7,17,18.4c0,11.1-8.2,18.4-17,18.4
		c-9.7,0-17.3-7.7-17.3-18.4C174.2,242.6,181.7,234.8,191.5,234.8z"/>
	<path id="XMLID_35_" class="st2" d="M257.5,222.9c-17.7,0-30.4,13.9-30.4,30c0,16.4,12.3,30.5,30.6,30.5
		c16.6,0,30.1-12.7,30.1-30.1C287.8,233.2,272,222.9,257.5,222.9L257.5,222.9z M257.7,234.8c8.7,0,17,7,17,18.4
		c0,11.1-8.2,18.4-17,18.4c-9.7,0-17.3-7.7-17.3-18.4C240.3,242.6,247.9,234.8,257.7,234.8z"/>
	<path id="XMLID_38_" class="st0" d="M322.3,222.9c-16.3,0-29,14.2-29,30.2c0,18.2,14.8,30.3,28.8,30.3c8.6,0,13.2-3.4,16.6-7.4v6
		c0,10.4-6.3,16.7-15.9,16.7c-9.2,0-13.9-6.9-15.5-10.8l-11.6,4.9c4.1,8.7,12.4,17.8,27.2,17.8c16.2,0,28.5-10.2,28.5-31.5v-54.4
		h-12.7v5.1C334.8,225.7,329.4,222.9,322.3,222.9L322.3,222.9z M323.5,234.8c8,0,16.2,6.8,16.2,18.4c0,11.8-8.2,18.3-16.3,18.3
		c-8.7,0-16.7-7-16.7-18.2C306.6,241.7,315,234.8,323.5,234.8L323.5,234.8z"/>
	<path id="XMLID_42_" class="st1" d="M407.7,222.9c-15.3,0-28.2,12.2-28.2,30.2c0,19.1,14.4,30.4,29.7,30.4c12.8,0,20.7-7,25.3-13.3
		l-10.5-7c-2.7,4.2-7.3,8.3-14.8,8.3c-8.5,0-12.4-4.7-14.8-9.2l40.6-16.8l-2.1-4.9C429,230.9,419.8,222.9,407.7,222.9L407.7,222.9z
		 M408.3,234.5c5.5,0,9.5,2.9,11.2,6.5l-27.1,11.3C391.2,243.5,399.5,234.5,408.3,234.5z"/>
	<rect id="XMLID_43_" x="360.2" y="192.5" class="st3" width="13.3" height="89.2"/>
</g>
</svg>
